# xmcd
# Track frame offsets:
# 182
# 16595
# 30057
# 40862
# 52217
# 65015
# 67880
# 73352
# 77740
# 81442
# 93082
# 104707
# 114310
# 130240
# 141087
# 153800
# 165410
# 177312
#
# Disc length: 2438 seconds
# Revision: 0
# Processed by: cddbd v1.4PL0 Copyright (c) Steve Scherf et al.
# Submitted via: VisiTrax 2.9.5.180 - For more info visit www.synapsa.com
#
DISCID=e8098412
DTITLE=Charley Pride - Greatest Hits
DYEAR=1994
DGENRE=
TTITLE0=Me And Bobby McGee
TTITLE1=(I'm So) Afraid Of Losing You Again
TTITLE2=Oklahoma Morning
TTITLE3=It's Gonna Take A Little Bit Longer
TTITLE4=Crystal Chandeliers
TTITLE5=Medley: Does My Ring Hurt Your Finger
TTITLE6=Medley: Too Good To Be True
TTITLE7=Medley: Wonder Could I Live There Anymore?
TTITLE8=Medley: Is Anybody Going To San Antone?
TTITLE9=Shutters And Boards
TTITLE10=My Eyes Can Only See As Far As You
TTITLE11=Kiss An Angel Good Morning
TTITLE12=Let Me Live In The Light Of His Love
TTITLE13=Mississippi Cotton Pickin' Delta Town
TTITLE14=Help Me Make It Through The Night
TTITLE15=Louisiana Man
TTITLE16=There Goes My Everything
TTITLE17=Lovesick Blues
EXTD=
EXTT0=
EXTT1=
EXTT2=
EXTT3=
EXTT4=
EXTT5=
EXTT6=
EXTT7=
EXTT8=
EXTT9=
EXTT10=
EXTT11=
EXTT12=
EXTT13=
EXTT14=
EXTT15=
EXTT16=
EXTT17=
PLAYORDER=
